<svg width="200" height="300" viewBox="0 0 200 300" fill="none" xmlns="http://www.w3.org/2000/svg">
<!-- 简约线稿风格人物立绘 -->
<path d="M100 50C127.614 50 150 72.3858 150 100C150 127.614 127.614 150 100 150C72.3858 150 50 127.614 50 100C50 72.3858 72.3858 50 100 50Z" stroke="black" stroke-width="2"/>
<circle cx="80" cy="90" r="5" fill="black"/>
<circle cx="120" cy="90" r="5" fill="black"/>
<path d="M80 115C85 120 95 120 100 115C105 120 115 120 120 115" stroke="black" stroke-width="2" stroke-linecap="round"/>
<path d="M70 170C70 150 130 150 130 170V250H70V170Z" stroke="black" stroke-width="2"/>
<path d="M80 170V130" stroke="black" stroke-width="2"/>
<path d="M120 170V130" stroke="black" stroke-width="2"/>
<path d="M85 250V280" stroke="black" stroke-width="2"/>
<path d="M115 250V280" stroke="black" stroke-width="2"/>
<!-- 丸子头 -->
<path d="M70 60C70 45 85 35 100 40C115 35 130 45 130 60" stroke="black" stroke-width="2" fill="none"/>
</svg>
